<?xml version="1.0" encoding="utf-8"?>
<svg xmlns="http://www.w3.org/2000/svg" xmlns:xlink="http://www.w3.org/1999/xlink" style="margin: auto; background: none; display: block; shape-rendering: auto;" width="200px" height="200px" viewBox="0 0 100 100" preserveAspectRatio="xMidYMid">
<g transform="rotate(0 50 50)">
  <rect x="47" y="24" rx="3" ry="6" width="6" height="12" fill="#2d3748">
    <animate attributeName="opacity" values="1;0" keyTimes="0;1" dur="2.0408163265306123s" begin="-1.870748299319728s" repeatCount="indefinite"></animate>
  </rect>
</g><g transform="rotate(30 50 50)">
  <rect x="47" y="24" rx="3" ry="6" width="6" height="12" fill="#2d3748">
    <animate attributeName="opacity" values="1;0" keyTimes="0;1" dur="2.0408163265306123s" begin="-1.7006802721088436s" repeatCount="indefinite"></animate>
  </rect>
</g><g transform="rotate(60 50 50)">
  <rect x="47" y="24" rx="3" ry="6" width="6" height="12" fill="#2d3748">
    <animate attributeName="opacity" values="1;0" keyTimes="0;1" dur="2.0408163265306123s" begin="-1.530612244897959s" repeatCount="indefinite"></animate>
  </rect>
</g><g transform="rotate(90 50 50)">
  <rect x="47" y="24" rx="3" ry="6" width="6" height="12" fill="#2d3748">
    <animate attributeName="opacity" values="1;0" keyTimes="0;1" dur="2.0408163265306123s" begin="-1.3605442176870748s" repeatCount="indefinite"></animate>
  </rect>
</g><g transform="rotate(120 50 50)">
  <rect x="47" y="24" rx="3" ry="6" width="6" height="12" fill="#2d3748">
    <animate attributeName="opacity" values="1;0" keyTimes="0;1" dur="2.0408163265306123s" begin="-1.1904761904761905s" repeatCount="indefinite"></animate>
  </rect>
</g><g transform="rotate(150 50 50)">
  <rect x="47" y="24" rx="3" ry="6" width="6" height="12" fill="#2d3748">
    <animate attributeName="opacity" values="1;0" keyTimes="0;1" dur="2.0408163265306123s" begin="-1.0204081632653061s" repeatCount="indefinite"></animate>
  </rect>
</g><g transform="rotate(180 50 50)">
  <rect x="47" y="24" rx="3" ry="6" width="6" height="12" fill="#2d3748">
    <animate attributeName="opacity" values="1;0" keyTimes="0;1" dur="2.0408163265306123s" begin="-0.8503401360544218s" repeatCount="indefinite"></animate>
  </rect>
</g><g transform="rotate(210 50 50)">
  <rect x="47" y="24" rx="3" ry="6" width="6" height="12" fill="#2d3748">
    <animate attributeName="opacity" values="1;0" keyTimes="0;1" dur="2.0408163265306123s" begin="-0.6802721088435374s" repeatCount="indefinite"></animate>
  </rect>
</g><g transform="rotate(240 50 50)">
  <rect x="47" y="24" rx="3" ry="6" width="6" height="12" fill="#2d3748">
    <animate attributeName="opacity" values="1;0" keyTimes="0;1" dur="2.0408163265306123s" begin="-0.5102040816326531s" repeatCount="indefinite"></animate>
  </rect>
</g><g transform="rotate(270 50 50)">
  <rect x="47" y="24" rx="3" ry="6" width="6" height="12" fill="#2d3748">
    <animate attributeName="opacity" values="1;0" keyTimes="0;1" dur="2.0408163265306123s" begin="-0.3401360544217687s" repeatCount="indefinite"></animate>
  </rect>
</g><g transform="rotate(300 50 50)">
  <rect x="47" y="24" rx="3" ry="6" width="6" height="12" fill="#2d3748">
    <animate attributeName="opacity" values="1;0" keyTimes="0;1" dur="2.0408163265306123s" begin="-0.17006802721088435s" repeatCount="indefinite"></animate>
  </rect>
</g><g transform="rotate(330 50 50)">
  <rect x="47" y="24" rx="3" ry="6" width="6" height="12" fill="#2d3748">
    <animate attributeName="opacity" values="1;0" keyTimes="0;1" dur="2.0408163265306123s" begin="0s" repeatCount="indefinite"></animate>
  </rect>
</g>
<!-- [ldio] generated by https://loading.io/ --></svg>