<svg width="1279" height="341" viewBox="0 0 1279 341" fill="none" xmlns="http://www.w3.org/2000/svg">
<g clip-path="url(#clip0_1052_24712)">
<path d="M0 273.042L53.2917 292.523C106.583 312.004 213.167 350.965 319.75 337.937C426.333 325.397 532.917 259.649 639.5 253.562C746.083 247.474 852.667 298.611 959.25 305.551C1065.83 312.004 1172.42 273.042 1225.71 253.562L1279 234.081V0.3125H1225.71C1172.42 0.3125 1065.83 0.3125 959.25 0.3125C852.667 0.3125 746.083 0.3125 639.5 0.3125C532.917 0.3125 426.333 0.3125 319.75 0.3125C213.167 0.3125 106.583 0.3125 53.2917 0.3125H0V273.042Z" fill="#4299E1"/>
</g>
<defs>
<clipPath id="clip0_1052_24712">
<rect width="1279" height="340.236" fill="white" transform="translate(0 0.3125)"/>
</clipPath>
</defs>
</svg>
